<svg width="96" height="30" viewBox="0 0 96 30" fill="none" xmlns="http://www.w3.org/2000/svg">
<g clip-path="url(#clip0_12222_10725)">
<path d="M29.9963 14.9991C29.9963 23.1789 23.3655 29.8098 15.1857 29.8098C14.8785 29.8098 14.5739 29.8008 14.2717 29.782C13.0046 29.7052 11.7799 29.4683 10.6186 29.0916C10.1768 28.949 9.74375 28.7851 9.32137 28.6032C4.05823 26.332 0.375 21.0957 0.375 14.9991C0.375 6.81933 7.00585 0.188477 15.1857 0.188477C23.3655 0.188477 29.9963 6.81933 29.9963 14.9991Z" fill="#33ADC1"/>
<path d="M14.2728 29.7825C12.5232 29.6761 10.856 29.2656 9.32243 28.6037C15.0579 20.8714 5.12891 13.5065 5.12891 13.5065L6.57594 13.1492L10.1349 12.271C10.1349 12.2708 20.8487 18.8063 14.2728 29.7825Z" fill="#EAE0D3"/>
<path d="M10.6196 29.0928C10.1778 28.9502 9.74481 28.7863 9.32243 28.6044C15.0579 20.8721 5.12891 13.5072 5.12891 13.5072L6.57594 13.1499C6.92668 13.4123 7.41753 13.7538 7.91856 14.2222C10.5301 16.6616 14.3187 21.8527 10.6196 29.0928Z" fill="#D6C8B0"/>
<path d="M13.7077 8.43111C13.7077 11.6289 11.1155 14.221 7.91751 14.221C4.71971 14.221 2.12757 11.6289 2.12757 8.43111C2.12757 7.95359 2.18498 7.48985 2.29436 7.046C2.40306 6.60238 2.56329 6.17864 2.76759 5.78202L0.375 3.38944L4.29597 3.91352L2.28464 1.41991L6.88269 2.73293L6.38143 0.188477C6.38143 0.188477 10.3815 2.40095 12.2821 4.6263C12.4261 4.79127 12.5603 4.96483 12.6853 5.14563C13.3298 6.07898 13.7077 7.21052 13.7077 8.43111Z" fill="#EAE0D3"/>
<path d="M11.0284 7.24867C11.0284 8.03174 10.3936 8.66678 9.61049 8.66678C8.8272 8.66678 8.19238 8.03174 8.19238 7.24867C8.19238 6.46538 8.8272 5.83057 9.61049 5.83057C10.3936 5.83057 11.0284 6.46538 11.0284 7.24867Z" fill="#2F373B"/>
<path d="M24.3213 8.18617C23.7391 8.49035 23.1255 8.42143 22.6329 8.25803C22.0568 8.06775 21.6469 7.74978 21.6469 7.74978C21.6469 7.74978 19.5734 5.71426 21.1687 4.82814C21.6505 4.56102 22.0405 4.56215 22.3499 4.69503H22.3506C23.067 5.00216 23.3547 6.00986 23.3547 6.00986C23.3547 6.00986 23.9321 4.51266 25.2094 4.966C26.486 5.41866 25.583 7.52672 24.3213 8.18617Z" fill="#FF648D"/>
<path d="M22.6329 8.25803C22.0568 8.06775 21.6469 7.74978 21.6469 7.74978C21.6469 7.74978 19.5734 5.71426 21.1687 4.82814C21.6505 4.56102 22.0405 4.56215 22.3499 4.69503C21.6439 4.65526 21.6215 7.25711 22.6329 8.25803Z" fill="#EA2F69"/>
<path d="M10.6266 6.79597C10.6266 7.04072 10.4282 7.23914 10.1834 7.23914C9.93866 7.23914 9.74023 7.04072 9.74023 6.79597C9.74023 6.55145 9.93866 6.35303 10.1834 6.35303C10.4282 6.35303 10.6266 6.55145 10.6266 6.79597Z" fill="white"/>
<path d="M22.1648 8.87012C22.1648 11.0302 16.2856 17.5885 20.1261 20.3063C21.0862 20.9858 22.1458 21.2073 23.1956 21.1576C24.2451 21.2075 25.3048 20.9858 26.265 20.3063C30.1053 17.5885 24.2261 11.0302 24.2261 8.87012" fill="#FF648D"/>
<path d="M23.0367 21.1633C22.0387 21.185 21.0375 20.9524 20.1261 20.3072C16.2856 17.5894 22.165 11.0309 22.165 8.87109H22.7951C22.7951 11.0309 20.5105 17.5894 22.003 20.3072C22.3277 20.8984 22.6819 21.1434 23.0367 21.1633Z" fill="#EA2F69"/>
<path d="M23.0361 21.1634C23.0888 21.163 23.1414 21.161 23.1941 21.1587C23.1414 21.1652 23.0888 21.1671 23.0361 21.1634Z" fill="#EA2F69"/>
<path d="M23.355 21.1634C23.3024 21.1671 23.2499 21.1652 23.1973 21.1587C23.2499 21.161 23.3024 21.163 23.355 21.1634Z" fill="#EA2F69"/>
<path d="M27.0613 8.48963L12.4086 10.9118C12.4086 10.9118 11.8972 10.1362 11.711 9.10795C11.5453 8.1911 11.6384 7.07311 12.5858 6.12598L27.0613 8.48963Z" fill="#FFD62C"/>
<path d="M27.0613 8.48926L12.4086 10.9114C12.4086 10.9114 11.8972 10.1358 11.7109 9.10757L27.0613 8.48926Z" fill="#FFB92E"/>
<path d="M7.91751 14.2201C4.71971 14.2201 2.12757 11.6279 2.12757 8.43014C2.12757 7.95262 2.18498 7.48888 2.29436 7.04503C2.40306 6.60141 2.56329 6.17767 2.76759 5.78106L0.375 3.38847L4.29597 3.91255L2.28464 1.41895L6.97218 4.05764C6.97218 4.05764 4.07699 5.12161 4.07699 8.48935C4.07699 11.8571 7.91751 14.2201 7.91751 14.2201Z" fill="#D6C8B0"/>
</g>
<path d="M90.5951 21.4462C89.7958 21.4462 89.0786 21.2491 88.4436 20.855C87.8085 20.4498 87.3049 19.9079 86.9326 19.229C86.5713 18.5392 86.3906 17.7618 86.3906 16.8968C86.3906 16.0319 86.5877 15.2545 86.9819 14.5647C87.387 13.8749 87.929 13.3329 88.6078 12.9387C89.2976 12.5336 90.0695 12.3311 90.9236 12.3311C91.7776 12.3311 92.544 12.5336 93.2229 12.9387C93.9017 13.3329 94.4382 13.8749 94.8324 14.5647C95.2375 15.2545 95.4401 16.0319 95.4401 16.8968H94.7996C94.7996 17.7618 94.6134 18.5392 94.2412 19.229C93.8798 19.9079 93.3816 20.4498 92.7466 20.855C92.1115 21.2491 91.3944 21.4462 90.5951 21.4462ZM90.9236 19.9681C91.482 19.9681 91.9802 19.8367 92.4181 19.5739C92.8561 19.3002 93.201 18.9334 93.4528 18.4735C93.7046 18.0027 93.8306 17.4771 93.8306 16.8968C93.8306 16.3056 93.7046 15.78 93.4528 15.3202C93.201 14.8494 92.8561 14.4826 92.4181 14.2198C91.9802 13.9461 91.482 13.8092 90.9236 13.8092C90.3761 13.8092 89.8779 13.9461 89.429 14.2198C88.991 14.4826 88.6407 14.8494 88.3779 15.3202C88.1261 15.78 88.0001 16.3056 88.0001 16.8968C88.0001 17.4771 88.1261 18.0027 88.3779 18.4735C88.6407 18.9334 88.991 19.3002 89.429 19.5739C89.8779 19.8367 90.3761 19.9681 90.9236 19.9681ZM94.6025 21.3969C94.3616 21.3969 94.159 21.3203 93.9948 21.167C93.8415 21.0028 93.7649 20.8002 93.7649 20.5593V18.0465L94.0769 16.3056L95.4401 16.8968V20.5593C95.4401 20.8002 95.358 21.0028 95.1937 21.167C95.0404 21.3203 94.8434 21.3969 94.6025 21.3969Z" fill="black"/>
<path d="M85.1886 21.1835C85.0463 21.3149 84.8437 21.3805 84.5809 21.3805C84.3291 21.3696 84.132 21.293 83.9897 21.1506L79.9987 16.864L83.7597 12.6596C83.9021 12.5063 84.0992 12.4187 84.351 12.3968C84.6138 12.3749 84.8163 12.4296 84.9587 12.561C85.1229 12.7143 85.216 12.8895 85.2379 13.0866C85.2598 13.2727 85.1996 13.4424 85.0572 13.5957L82.0845 16.7819L85.2379 20.1652C85.3802 20.3075 85.4514 20.4772 85.4514 20.6743C85.4514 20.8605 85.3638 21.0302 85.1886 21.1835ZM78.6848 21.397C78.4439 21.397 78.2523 21.3203 78.11 21.167C77.9677 21.0028 77.8965 20.8002 77.8965 20.5594V13.2344C77.8965 12.9826 77.9677 12.78 78.11 12.6267C78.2523 12.4734 78.4439 12.3968 78.6848 12.3968C78.9367 12.3968 79.1392 12.4734 79.2925 12.6267C79.4567 12.78 79.5389 12.9826 79.5389 13.2344V15.9772H81.6411V17.521H79.5389V20.5594C79.5389 20.8002 79.4567 21.0028 79.2925 21.167C79.1392 21.3203 78.9367 21.397 78.6848 21.397Z" fill="black"/>
<path d="M71.753 21.4462C70.8442 21.4462 70.034 21.2546 69.3223 20.8714C68.6216 20.4772 68.0686 19.9407 67.6635 19.2619C67.2693 18.5721 67.0723 17.7837 67.0723 16.8968C67.0723 15.999 67.2584 15.2107 67.6307 14.5318C68.0139 13.842 68.5394 13.3055 69.2073 12.9223C69.8752 12.5281 70.6417 12.3311 71.5067 12.3311C72.3607 12.3311 73.0943 12.5227 73.7074 12.9059C74.3206 13.2782 74.7859 13.7982 75.1035 14.4661C75.4319 15.1231 75.5962 15.884 75.5962 16.749C75.5962 16.9571 75.525 17.1322 75.3827 17.2746C75.2403 17.406 75.0597 17.4717 74.8407 17.4717H68.2219V16.1578H74.7914L74.118 16.6176C74.1071 16.0702 73.9976 15.5829 73.7896 15.1559C73.5815 14.718 73.2859 14.3731 72.9027 14.1212C72.5195 13.8694 72.0541 13.7435 71.5067 13.7435C70.8826 13.7435 70.3461 13.8804 69.8971 14.1541C69.4592 14.4278 69.1252 14.8056 68.8953 15.2873C68.6654 15.7581 68.5504 16.2946 68.5504 16.8968C68.5504 17.499 68.6873 18.0356 68.961 18.5064C69.2347 18.9772 69.6125 19.3494 70.0942 19.6232C70.576 19.8969 71.1289 20.0338 71.753 20.0338C72.0924 20.0338 72.4373 19.9736 72.7877 19.8531C73.149 19.7217 73.4392 19.5739 73.6582 19.4097C73.8224 19.2892 73.9976 19.229 74.1837 19.229C74.3808 19.2181 74.5505 19.2728 74.6929 19.3932C74.879 19.5575 74.9775 19.7381 74.9885 19.9352C74.9994 20.1323 74.9118 20.302 74.7257 20.4444C74.3534 20.74 73.8881 20.9809 73.3297 21.167C72.7822 21.3531 72.2567 21.4462 71.753 21.4462Z" fill="black"/>
<path d="M61.0952 12.4141C61.2594 12.4141 61.4073 12.4579 61.5386 12.5455C61.67 12.633 61.774 12.7699 61.8507 12.956L65.234 20.2974C65.3325 20.5164 65.3435 20.7135 65.2668 20.8887C65.1902 21.0529 65.0588 21.1788 64.8727 21.2664C64.6318 21.3759 64.4237 21.4033 64.2486 21.3486C64.0734 21.2938 63.9256 21.1569 63.8051 20.938L60.7175 13.925H61.5551L58.3689 20.938C58.2703 21.146 58.1225 21.2829 57.9254 21.3486C57.7393 21.4033 57.5313 21.3759 57.3013 21.2664C57.0933 21.1679 56.9455 21.0365 56.8579 20.8723C56.7812 20.708 56.7977 20.5164 56.9072 20.2974L60.3069 12.956C60.4711 12.5947 60.7339 12.4141 61.0952 12.4141Z" fill="black"/>
<path d="M51.5841 21.4462C50.6753 21.4462 49.8651 21.2546 49.1534 20.8714C48.4526 20.4772 47.8997 19.9407 47.4946 19.2619C47.1004 18.5721 46.9033 17.7837 46.9033 16.8968C46.9033 15.999 47.0895 15.2107 47.4617 14.5318C47.8449 13.842 48.3705 13.3055 49.0384 12.9223C49.7063 12.5281 50.4727 12.3311 51.3377 12.3311C52.1918 12.3311 52.9253 12.5227 53.5385 12.9059C54.1516 13.2782 54.617 13.7982 54.9345 14.4661C55.263 15.1231 55.4272 15.884 55.4272 16.749C55.4272 16.9571 55.3561 17.1322 55.2137 17.2746C55.0714 17.406 54.8907 17.4717 54.6717 17.4717H48.053V16.1578H54.6225L53.9491 16.6176C53.9381 16.0702 53.8286 15.5829 53.6206 15.1559C53.4126 14.718 53.117 14.3731 52.7337 14.1212C52.3505 13.8694 51.8852 13.7435 51.3377 13.7435C50.7136 13.7435 50.1771 13.8804 49.7282 14.1541C49.2902 14.4278 48.9563 14.8056 48.7264 15.2873C48.4964 15.7581 48.3815 16.2946 48.3815 16.8968C48.3815 17.499 48.5183 18.0356 48.792 18.5064C49.0658 18.9772 49.4435 19.3494 49.9253 19.6232C50.407 19.8969 50.96 20.0338 51.5841 20.0338C51.9235 20.0338 52.2684 19.9736 52.6188 19.8531C52.9801 19.7217 53.2702 19.5739 53.4892 19.4097C53.6535 19.2892 53.8286 19.229 54.0148 19.229C54.2119 19.2181 54.3816 19.2728 54.5239 19.3932C54.7101 19.5575 54.8086 19.7381 54.8195 19.9352C54.8305 20.1323 54.7429 20.302 54.5568 20.4444C54.1845 20.74 53.7192 20.9809 53.1608 21.167C52.6133 21.3531 52.0877 21.4462 51.5841 21.4462Z" fill="black"/>
<path d="M35.5325 21.3811C35.226 21.3811 34.9906 21.2497 34.8263 20.9869C34.6621 20.7242 34.6457 20.445 34.777 20.1493L39.3921 9.12903C39.5563 8.74581 39.8246 8.5542 40.1969 8.5542C40.591 8.5542 40.8593 8.74581 41.0016 9.12903L45.6331 20.1822C45.7536 20.4888 45.7371 20.768 45.5838 21.0198C45.4415 21.2607 45.2116 21.3811 44.894 21.3811C44.7298 21.3811 44.571 21.3373 44.4178 21.2497C44.2754 21.1512 44.1714 21.0198 44.1057 20.8556L39.9998 10.7386H40.5253L36.3209 20.8556C36.2442 21.0307 36.1293 21.1621 35.976 21.2497C35.8336 21.3373 35.6858 21.3811 35.5325 21.3811Z" fill="black"/>
<defs>
<clipPath id="clip0_12222_10725">
<rect width="29.6213" height="29.6213" fill="white" transform="translate(0.375 0.189453)"/>
</clipPath>
</defs>
</svg>
