<svg aria-hidden="true" style="position: absolute; width: 0; height: 0; overflow: hidden;" version="1.1" xmlns="http://www.w3.org/2000/svg" xmlns:xlink="http://www.w3.org/1999/xlink">
<defs>

/* Account */

<symbol id="icon-account" viewBox="0 0 32 32">
<path d="M7.432 23.413c1.395-0.967 2.778-1.709 4.151-2.226s2.846-0.775 4.421-0.775c1.575 0 3.055 0.26 4.442 0.781s2.771 1.261 4.156 2.22c0.967-1.205 1.653-2.407 2.056-3.605s0.605-2.467 0.605-3.807c0-3.197-1.077-5.873-3.233-8.029s-4.831-3.233-8.028-3.233c-3.196 0-5.873 1.078-8.029 3.233s-3.234 4.832-3.234 8.029c0 1.34 0.206 2.608 0.618 3.805s1.104 2.399 2.076 3.608zM15.994 17.056c-1.301 0-2.395-0.445-3.28-1.335s-1.328-1.984-1.328-3.282 0.445-2.391 1.334-3.28c0.89-0.888 1.985-1.333 3.287-1.333s2.395 0.446 3.28 1.339c0.885 0.892 1.328 1.988 1.328 3.286s-0.445 2.39-1.334 3.276c-0.889 0.886-1.985 1.328-3.287 1.328zM16.011 29.533c-1.856 0-3.607-0.355-5.252-1.064s-3.084-1.68-4.315-2.911c-1.232-1.231-2.202-2.667-2.912-4.308s-1.064-3.393-1.064-5.259c0-1.859 0.355-3.608 1.066-5.245s1.681-3.071 2.911-4.301c1.23-1.23 2.665-2.201 4.306-2.915s3.394-1.070 5.26-1.070c1.859 0 3.608 0.357 5.245 1.070s3.071 1.685 4.301 2.915c1.23 1.23 2.201 2.664 2.915 4.303s1.070 3.386 1.070 5.242c0 1.856-0.357 3.607-1.070 5.253s-1.685 3.084-2.915 4.314c-1.23 1.23-2.664 2.2-4.303 2.911s-3.386 1.066-5.242 1.066zM16 27.262c1.206 0 2.379-0.173 3.52-0.517s2.277-0.954 3.41-1.827c-1.139-0.795-2.281-1.396-3.427-1.805s-2.314-0.613-3.503-0.613-2.356 0.205-3.499 0.613c-1.143 0.409-2.284 1.011-3.423 1.805 1.133 0.873 2.269 1.482 3.406 1.827s2.309 0.517 3.516 0.517zM16 14.96c0.739 0 1.343-0.233 1.814-0.701s0.705-1.072 0.705-1.814-0.235-1.348-0.705-1.818c-0.47-0.47-1.075-0.705-1.814-0.705s-1.343 0.235-1.814 0.705c-0.47 0.47-0.705 1.076-0.705 1.818s0.235 1.347 0.705 1.814c0.47 0.467 1.075 0.701 1.814 0.701z"></path>
</symbol>

/* */

<symbol id="icon-arrowDown" viewBox="0 0 32 32">
<path stroke-linejoin="miter" stroke-linecap="butt" stroke-miterlimit="4" stroke-width="1.3333" d="M9.449 12.031c0.134 0 0.237 0.041 0.341 0.145l6.208 6.244 6.243-6.244c0.104-0.103 0.192-0.133 0.299-0.129 0.126 0.005 0.234 0.048 0.349 0.163 0.104 0.104 0.145 0.207 0.145 0.341s-0.041 0.236-0.145 0.34l-6.559 6.559c-0.072 0.072-0.129 0.107-0.167 0.122-0.047 0.020-0.101 0.031-0.165 0.031-0.033 0-0.062-0.004-0.090-0.009l-0.077-0.022-0.070-0.040c-0.028-0.019-0.059-0.046-0.095-0.082l-6.592-6.591c-0.098-0.098-0.133-0.191-0.129-0.318 0.005-0.143 0.053-0.255 0.163-0.365 0.104-0.104 0.206-0.144 0.34-0.145z"></path>
</symbol>

/* */

<symbol id="icon-arrowUp" viewBox="0 0 32 32">
<path stroke-linejoin="miter" stroke-linecap="butt" stroke-miterlimit="4" stroke-width="1.3333" d="M16 11.605c0.125 0 0.227 0.038 0.333 0.145l6.591 6.592c0.109 0.109 0.145 0.208 0.145 0.324s-0.035 0.215-0.145 0.324c-0.104 0.104-0.207 0.145-0.341 0.145s-0.236-0.041-0.34-0.145l-0.001-0.001-6.243-6.207-6.241 6.241c-0.104 0.104-0.192 0.133-0.299 0.129-0.126-0.005-0.234-0.047-0.349-0.161-0.104-0.104-0.145-0.207-0.145-0.341s0.040-0.237 0.145-0.341l6.559-6.559c0.107-0.107 0.207-0.144 0.332-0.145z"></path>
</symbol>

/* */

<symbol id="icon-book" viewBox="0 0 32 32">
<path d="M7.349 21.27c0.316-0.202 0.659-0.356 1.030-0.461s0.768-0.158 1.192-0.158h1.112v-15.976h-1.112c-0.624 0-1.151 0.216-1.579 0.647s-0.643 0.959-0.643 1.583v14.365zM12.898 20.651h11.761v-15.976h-11.761v15.976zM9.571 29.533c-1.228 0-2.275-0.432-3.14-1.297s-1.297-1.911-1.297-3.14v-18.191c0-1.23 0.432-2.279 1.297-3.145s1.911-1.3 3.14-1.3h15.024c0.632 0 1.17 0.222 1.614 0.665s0.665 0.981 0.665 1.614v17.246c0 0.217-0.056 0.414-0.167 0.591s-0.253 0.301-0.427 0.373c-0.406 0.168-0.725 0.442-0.956 0.822s-0.347 0.818-0.347 1.315 0.115 0.934 0.345 1.311c0.23 0.377 0.548 0.648 0.954 0.812 0.192 0.084 0.34 0.229 0.443 0.437s0.155 0.46 0.155 0.756v0.037c0 0.303-0.107 0.56-0.322 0.774s-0.478 0.32-0.789 0.32h-16.191zM9.556 27.318h13.8c-0.187-0.316-0.333-0.665-0.437-1.047s-0.156-0.773-0.156-1.174c0-0.424 0.053-0.821 0.158-1.192s0.262-0.717 0.469-1.039h-13.831c-0.61 0-1.131 0.216-1.562 0.647s-0.647 0.959-0.647 1.583c0 0.619 0.216 1.144 0.647 1.575s0.951 0.647 1.56 0.647z"></path>
</symbol>

/* */

<symbol id="icon-chair" viewBox="0 0 32 32">
<path d="M6.751 28.598c-0.303 0-0.568-0.115-0.795-0.346s-0.34-0.498-0.34-0.802v-1.484h-0.433c-1.070 0-1.979-0.374-2.727-1.123s-1.123-1.657-1.123-2.727v-8.133c0-1.146 0.343-2.027 1.029-2.644s1.499-0.945 2.437-0.982v-2.707c0-1.073 0.34-1.95 1.020-2.63s1.557-1.020 2.63-1.020h15.5c1.073 0 1.944 0.34 2.613 1.020s1.003 1.557 1.003 2.63v2.707c0.939 0.037 1.751 0.364 2.437 0.982s1.029 1.499 1.029 2.644v8.133c0 1.070-0.374 1.979-1.123 2.727s-1.657 1.123-2.727 1.123h-0.433v1.484c0 0.304-0.113 0.572-0.34 0.802s-0.492 0.346-0.796 0.346-0.569-0.115-0.795-0.346c-0.227-0.23-0.34-0.498-0.34-0.802v-1.484h-16.583v1.486c0 0.305-0.115 0.572-0.345 0.801s-0.496 0.344-0.8 0.344zM5.183 23.696h22c0.42 0 0.788-0.159 1.104-0.477s0.475-0.685 0.475-1.102v-8.133c0-0.416-0.126-0.75-0.377-1.001s-0.585-0.378-1.003-0.378c-0.418 0-0.752 0.126-1.002 0.378s-0.376 0.586-0.376 1.001v5.954h-19.642v-5.954c0-0.416-0.126-0.75-0.377-1.001s-0.585-0.378-1.003-0.378c-0.418 0-0.752 0.126-1.002 0.378s-0.376 0.586-0.376 1.001v8.133c0 0.416 0.159 0.783 0.477 1.102s0.685 0.477 1.102 0.477zM8.633 17.667h15.1v-3.683c0-0.709 0.162-1.308 0.486-1.797s0.683-0.879 1.077-1.17v-3.366c0-0.42-0.125-0.754-0.375-1.004s-0.582-0.375-0.996-0.375h-15.484c-0.41 0-0.741 0.125-0.993 0.375s-0.377 0.585-0.377 1.004v3.366c0.394 0.291 0.753 0.681 1.077 1.17s0.486 1.088 0.486 1.797v3.683z"></path>
</symbol>

/* */

<symbol id="icon-close" viewBox="0 0 32 32">
<path stroke-linejoin="miter" stroke-linecap="butt" stroke-miterlimit="4" stroke-width="1.6842" d="M27.734 2.077c0.436 0 0.739 0.133 0.977 0.372s0.37 0.54 0.37 0.975c0 0.436-0.132 0.739-0.37 0.977l-11.6 11.599 11.6 11.599c0.238 0.238 0.37 0.541 0.37 0.977s-0.132 0.739-0.37 0.977c-0.238 0.238-0.541 0.37-0.977 0.37s-0.739-0.132-0.977-0.37l-11.599-11.6-11.599 11.6c-0.238 0.238-0.541 0.37-0.977 0.37s-0.737-0.132-0.975-0.37c-0.238-0.238-0.372-0.541-0.372-0.977s0.133-0.739 0.372-0.977l11.599-11.599-11.599-11.599c-0.238-0.238-0.372-0.541-0.372-0.977s0.133-0.737 0.372-0.975 0.54-0.372 0.975-0.372c0.436 0 0.739 0.133 0.977 0.372l11.599 11.599 11.599-11.599c0.238-0.238 0.541-0.372 0.977-0.372z"></path>
</symbol>


/* Conversion */

<symbol id="icon-conversion" viewBox="0 0 32 32">
<path d="M25.533 28.183c-0.97 0-1.807-0.288-2.511-0.864s-1.148-1.267-1.331-2.071h-6.925c-1.484 0-2.713-0.487-3.687-1.462s-1.461-2.205-1.461-3.69c0-1.48 0.487-2.707 1.461-3.682s2.203-1.462 3.687-1.462h2.567c0.894 0 1.626-0.286 2.196-0.857s0.856-1.303 0.856-2.197-0.285-1.626-0.856-2.196c-0.571-0.57-1.303-0.855-2.196-0.855h-7.017c-0.211 0.804-0.663 1.495-1.356 2.071s-1.525 0.864-2.494 0.864c-1.114 0-2.056-0.385-2.827-1.156s-1.156-1.713-1.156-2.827c0-1.114 0.385-2.057 1.156-2.827s1.713-1.156 2.827-1.156c0.97 0 1.801 0.288 2.494 0.864s1.145 1.267 1.356 2.071h7.017c1.483 0 2.711 0.487 3.686 1.462s1.462 2.203 1.462 3.686-0.487 2.711-1.462 3.686c-0.975 0.974-2.203 1.462-3.686 1.462h-2.567c-0.895 0-1.628 0.285-2.197 0.855s-0.855 1.301-0.855 2.193c0 0.898 0.285 1.632 0.855 2.201s1.302 0.855 2.197 0.855h6.925c0.205-0.805 0.655-1.495 1.348-2.071s1.525-0.864 2.494-0.864c1.114 0 2.056 0.385 2.827 1.156s1.156 1.713 1.156 2.827c0 1.114-0.385 2.057-1.156 2.827s-1.713 1.156-2.827 1.156zM6.466 9.6c0.511 0 0.939-0.172 1.283-0.517s0.517-0.772 0.517-1.283c0-0.511-0.172-0.939-0.517-1.283s-0.772-0.517-1.283-0.517c-0.511 0-0.939 0.172-1.283 0.517s-0.517 0.772-0.517 1.283c0 0.511 0.172 0.939 0.517 1.283s0.772 0.517 1.283 0.517z"></path>
</symbol>

/* Delete */

<symbol id="icon-delete" viewBox="0 0 32 32">
<path d="M8.637 28.199c-0.632 0-1.17-0.221-1.614-0.663s-0.665-0.978-0.665-1.608v-18.865h-0.367c-0.321 0-0.59-0.11-0.808-0.329s-0.327-0.49-0.327-0.812c0-0.322 0.109-0.591 0.327-0.806s0.488-0.323 0.808-0.323h5.474c0-0.326 0.109-0.598 0.328-0.816s0.488-0.327 0.808-0.327h6.792c0.32 0 0.59 0.111 0.808 0.332s0.327 0.492 0.327 0.812h5.482c0.321 0 0.59 0.11 0.808 0.329s0.327 0.49 0.327 0.812c0 0.322-0.109 0.591-0.327 0.807s-0.488 0.323-0.808 0.323h-0.367v18.865c0 0.63-0.222 1.166-0.665 1.608s-0.981 0.663-1.614 0.663h-14.727zM23.364 7.063h-14.727v18.865h14.727v-18.865zM16.001 18.103l3.136 3.162c0.233 0.238 0.515 0.361 0.848 0.37s0.618-0.109 0.856-0.353c0.233-0.251 0.349-0.535 0.349-0.853s-0.116-0.596-0.349-0.834l-3.136-3.195 3.136-3.203c0.233-0.233 0.349-0.51 0.349-0.831s-0.116-0.601-0.349-0.839c-0.238-0.233-0.524-0.349-0.856-0.349s-0.615 0.116-0.848 0.349l-3.136 3.17-3.103-3.17c-0.233-0.233-0.514-0.349-0.844-0.349s-0.614 0.116-0.852 0.349c-0.233 0.238-0.349 0.524-0.349 0.856s0.116 0.615 0.349 0.848l3.128 3.17-3.128 3.17c-0.238 0.233-0.356 0.514-0.353 0.844s0.12 0.614 0.353 0.852c0.24 0.233 0.524 0.349 0.853 0.349s0.612-0.116 0.851-0.349l3.095-3.162z"></path>
</symbol>

/* Edit */

<symbol id="icon-edit" viewBox="0 0 32 32">
<path d="M6.072 28.199c-0.613 0-1.145-0.225-1.595-0.676s-0.676-0.982-0.676-1.595v-19.857c0-0.616 0.225-1.149 0.676-1.601s0.982-0.678 1.595-0.678h10.757c0.381 0 0.667 0.118 0.858 0.354s0.286 0.496 0.286 0.779c0 0.283-0.096 0.545-0.288 0.786s-0.474 0.36-0.847 0.36h-10.765v19.857h19.857v-10.857c0-0.373 0.118-0.656 0.354-0.848s0.496-0.288 0.779-0.288 0.545 0.096 0.785 0.288c0.24 0.192 0.361 0.475 0.361 0.848v10.857c0 0.613-0.226 1.145-0.678 1.595s-0.985 0.676-1.601 0.676h-19.857zM11.904 18.96v-3.722c0-0.312 0.062-0.61 0.187-0.893s0.291-0.53 0.501-0.739l11.958-11.95c0.227-0.226 0.478-0.391 0.755-0.493s0.556-0.153 0.837-0.153c0.276 0 0.557 0.057 0.843 0.17s0.546 0.283 0.781 0.51l2.512 2.537c0.223 0.231 0.393 0.484 0.511 0.757s0.177 0.553 0.177 0.836c0 0.285-0.058 0.574-0.173 0.866s-0.287 0.552-0.515 0.78l-11.883 11.95c-0.21 0.21-0.456 0.375-0.739 0.497s-0.581 0.183-0.893 0.183h-3.722c-0.321 0-0.59-0.109-0.808-0.327s-0.327-0.488-0.327-0.808zM14.064 17.936h2.746l8.378-8.378-1.383-1.36-1.388-1.352-8.352 8.311v2.779z"></path>
</symbol>

/* Fitness */

<symbol id="icon-fitness" viewBox="0 0 32 32">
<path d="M8.973 10.556l-3.97 3.969c-0.221 0.221-0.477 0.331-0.768 0.328s-0.547-0.115-0.768-0.336c-0.199-0.199-0.303-0.449-0.311-0.751s0.087-0.563 0.286-0.784l1.12-1.146-1.063-1.071c-0.227-0.227-0.34-0.493-0.34-0.8s0.113-0.573 0.34-0.8l2.046-2.046-0.596-0.588c-0.232-0.227-0.348-0.493-0.348-0.8s0.113-0.57 0.34-0.792c0.204-0.21 0.464-0.319 0.779-0.327s0.586 0.090 0.812 0.294l0.622 0.604 2.012-2.012c0.227-0.227 0.493-0.34 0.8-0.34s0.576 0.113 0.808 0.34l1.063 1.063 1.154-1.128c0.221-0.199 0.478-0.298 0.772-0.298s0.548 0.108 0.764 0.324c0.221 0.227 0.332 0.485 0.332 0.776s-0.111 0.546-0.332 0.768l-3.962 3.962 12.47 12.47 3.962-3.962c0.221-0.221 0.479-0.332 0.772-0.332s0.551 0.111 0.772 0.332c0.199 0.199 0.303 0.451 0.311 0.755s-0.087 0.565-0.286 0.78l-1.128 1.154 1.063 1.063c0.227 0.232 0.34 0.501 0.34 0.808s-0.113 0.573-0.34 0.8l-2.079 2.079 0.604 0.588c0.227 0.227 0.34 0.493 0.34 0.8s-0.113 0.57-0.34 0.792c-0.226 0.227-0.492 0.34-0.796 0.34s-0.569-0.116-0.796-0.348l-0.588-0.596-2.012 2.012c-0.227 0.227-0.493 0.34-0.8 0.34s-0.573-0.113-0.8-0.34l-1.071-1.063-1.154 1.128c-0.221 0.199-0.477 0.297-0.768 0.294s-0.544-0.112-0.76-0.328c-0.227-0.221-0.34-0.477-0.34-0.768s0.113-0.549 0.34-0.776l3.961-3.962-12.47-12.47z"></path>
</symbol>


/* Fork */

<symbol id="icon-fork" viewBox="0 0 32 32">
<path d="M8.974 29.533c-0.322 0-0.591-0.109-0.807-0.327s-0.323-0.488-0.323-0.808v-11.369c-1.33-0.333-2.377-0.965-3.14-1.893s-1.144-2.015-1.144-3.259v-8.305c0-0.312 0.107-0.575 0.322-0.789s0.477-0.322 0.788-0.322 0.573 0.107 0.786 0.322c0.213 0.215 0.319 0.478 0.319 0.789v7.17h2.1v-7.17c0-0.312 0.107-0.575 0.322-0.789s0.477-0.322 0.788-0.322 0.573 0.107 0.786 0.322c0.213 0.215 0.319 0.478 0.319 0.789v7.17h2.133v-7.17c0-0.312 0.107-0.575 0.322-0.789s0.478-0.322 0.789-0.322c0.311 0 0.573 0.107 0.786 0.322s0.319 0.478 0.319 0.789v8.289c0 1.249-0.384 2.334-1.152 3.254s-1.825 1.555-3.173 1.904v11.378c0 0.321-0.11 0.59-0.329 0.808s-0.49 0.327-0.812 0.327zM23.115 29.533c-0.322 0-0.591-0.109-0.806-0.327s-0.323-0.488-0.323-0.808v-11.944c-1.272-0.453-2.288-1.294-3.049-2.525s-1.141-2.686-1.141-4.368c0-1.974 0.52-3.651 1.56-5.031s2.295-2.070 3.765-2.070c1.47 0 2.725 0.692 3.765 2.077s1.56 3.059 1.56 5.024c0 1.679-0.38 3.135-1.141 4.369s-1.774 2.087-3.040 2.558v11.909c0 0.321-0.111 0.59-0.334 0.808s-0.495 0.327-0.816 0.327z"></path>
</symbol>

/* Google */


<symbol id="icon-Google" viewBox="0 0 32 32">
<path d="M28 15.72c0 5.533-2.947 12.28-11.827 12.28-6.674 0.044-12.122-5.326-12.173-12 0.051-6.674 5.499-12.044 12.173-12 2.761 0.010 5.438 0.95 7.6 2.667 0.149 0.122 0.241 0.301 0.253 0.493 0.001 0.195-0.076 0.382-0.213 0.52-0.868 0.794-1.696 1.63-2.48 2.507-0.228 0.251-0.61 0.286-0.88 0.080-1.232-0.912-2.735-1.381-4.267-1.333-3.94 0-7.133 3.194-7.133 7.133s3.194 7.133 7.133 7.133c4 0 5.693-1.707 6.573-4.733h-6.093c-0.368 0-0.667-0.299-0.667-0.667v-3.533c0-0.368 0.299-0.667 0.667-0.667h10.667c0.307-0.002 0.566 0.228 0.6 0.533 0.049 0.527 0.072 1.057 0.067 1.587z"></path>
</symbol>


/* Logout */


<symbol id="icon-logout" viewBox="0 0 32 32">
<path d="M6.072 28.2c-0.613 0-1.145-0.225-1.595-0.676s-0.676-0.982-0.676-1.595v-19.857c0-0.616 0.225-1.149 0.676-1.601s0.982-0.678 1.595-0.678h8.807c0.321 0 0.59 0.111 0.808 0.334s0.327 0.495 0.327 0.816c0 0.322-0.109 0.59-0.327 0.806s-0.487 0.323-0.808 0.323h-8.807v19.857h8.807c0.321 0 0.59 0.11 0.808 0.329s0.327 0.49 0.327 0.812c0 0.322-0.109 0.591-0.327 0.806s-0.487 0.323-0.808 0.323h-8.807zM23.856 17.136h-10.768c-0.32 0-0.59-0.11-0.808-0.329s-0.327-0.49-0.327-0.812c0-0.322 0.109-0.591 0.327-0.806s0.488-0.323 0.808-0.323h10.701l-2.564-2.564c-0.227-0.228-0.334-0.495-0.323-0.8s0.13-0.571 0.357-0.795c0.226-0.229 0.496-0.342 0.81-0.34s0.585 0.117 0.815 0.344l4.529 4.529c0.221 0.228 0.332 0.494 0.332 0.797s-0.111 0.568-0.332 0.794l-4.496 4.496c-0.222 0.227-0.486 0.335-0.792 0.327s-0.577-0.126-0.812-0.352c-0.218-0.227-0.328-0.497-0.331-0.811s0.112-0.585 0.344-0.813l2.531-2.539z"></path>
</symbol>

/* Today */


<symbol id="icon-today" viewBox="0 0 32 32">
<path d="M11.808 21.715c-0.907 0-1.672-0.313-2.294-0.939s-0.933-1.393-0.933-2.3c0-0.907 0.313-1.672 0.94-2.294s1.393-0.933 2.3-0.933c0.907 0 1.671 0.313 2.294 0.94s0.933 1.393 0.933 2.3c0 0.907-0.313 1.671-0.939 2.294s-1.393 0.933-2.3 0.933zM6.072 29.533c-0.613 0-1.145-0.225-1.595-0.676s-0.676-0.982-0.676-1.595v-20.523c0-0.616 0.225-1.149 0.676-1.601s0.982-0.678 1.595-0.678h2.095v-0.862c0-0.319 0.111-0.588 0.332-0.808s0.491-0.33 0.808-0.33c0.326 0 0.602 0.11 0.826 0.33s0.336 0.489 0.336 0.808v0.862h11.062v-0.862c0-0.319 0.111-0.588 0.332-0.808s0.491-0.33 0.808-0.33c0.327 0 0.602 0.11 0.826 0.33s0.336 0.489 0.336 0.808v0.862h2.095c0.616 0 1.149 0.226 1.601 0.678s0.678 0.985 0.678 1.601v20.523c0 0.613-0.226 1.145-0.678 1.595s-0.985 0.676-1.601 0.676h-19.857zM6.072 27.262h19.857v-14.262h-19.857v14.262zM6.072 11h19.857v-4.262h-19.857v4.262z"></path>
</symbol>
`

<symbol id="icon-add_circle" viewBox="0 0 32 32">
<path d="M15.052 17.181v4.486c0 0.297 0.1 0.546 0.299 0.747s0.451 0.301 0.754 0.301c0.303 0 0.552-0.099 0.748-0.298s0.294-0.449 0.294-0.752v-4.484h4.519c0.297 0 0.546-0.1 0.747-0.299s0.301-0.451 0.301-0.754c0-0.303-0.099-0.552-0.298-0.748s-0.449-0.294-0.752-0.294h-4.517v-4.752c0-0.297-0.1-0.546-0.299-0.747s-0.451-0.301-0.754-0.301c-0.303 0-0.552 0.099-0.748 0.298s-0.294 0.449-0.294 0.752v4.75h-4.719c-0.297 0-0.546 0.1-0.747 0.299s-0.301 0.451-0.301 0.754c0 0.303 0.099 0.552 0.298 0.748s0.449 0.294 0.752 0.294h4.717zM16.010 29.533c-1.871 0-3.627-0.354-5.268-1.063s-3.076-1.677-4.305-2.907-2.198-2.665-2.907-4.307c-0.708-1.642-1.063-3.399-1.063-5.272s0.354-3.631 1.063-5.273c0.708-1.642 1.677-3.073 2.905-4.291s2.664-2.183 4.306-2.894c1.642-0.711 3.4-1.066 5.274-1.066s3.632 0.355 5.275 1.066c1.643 0.71 3.074 1.675 4.292 2.892s2.183 2.65 2.893 4.296c0.711 1.646 1.066 3.405 1.066 5.278s-0.355 3.628-1.066 5.269c-0.711 1.641-1.675 3.074-2.894 4.298s-2.65 2.193-4.296 2.906c-1.645 0.713-3.404 1.069-5.275 1.069zM16.017 27.262c3.123 0 5.778-1.097 7.965-3.292s3.28-4.857 3.28-7.987c0-3.123-1.091-5.778-3.274-7.965s-4.846-3.28-7.992-3.28c-3.115 0-5.77 1.091-7.965 3.274s-3.293 4.846-3.293 7.992c0 3.115 1.097 5.77 3.292 7.965s4.857 3.293 7.987 3.293z"></path>
</symbol>


</defs>
</svg>

