<svg aria-hidden="true" style="position: absolute; width: 0; height: 0; overflow: hidden;" version="1.1" xmlns="http://www.w3.org/2000/svg" xmlns:xlink="http://www.w3.org/1999/xlink">
<defs>
<symbol id="journey" viewBox="0 0 35 32">
<path d="M29.040 30.62c-1.164 0-2.168-0.346-3.013-1.037s-1.378-1.52-1.597-2.486h-8.31c-1.781 0-3.256-0.585-4.424-1.754s-1.753-2.646-1.753-4.428c0-1.776 0.584-3.249 1.753-4.418s2.643-1.754 4.424-1.754h3.080c1.072 0 1.951-0.343 2.636-1.028s1.027-1.564 1.027-2.637c0-1.073-0.342-1.951-1.027-2.635s-1.563-1.026-2.636-1.026h-8.42c-0.253 0.965-0.795 1.794-1.627 2.486s-1.83 1.037-2.993 1.037c-1.337 0-2.468-0.463-3.393-1.388s-1.387-2.056-1.387-3.393c0-1.337 0.462-2.468 1.387-3.393s2.056-1.387 3.393-1.387c1.163 0 2.161 0.346 2.993 1.037s1.374 1.52 1.627 2.486h8.42c1.779 0 3.254 0.585 4.423 1.754s1.754 2.644 1.754 4.423-0.585 3.254-1.754 4.423c-1.17 1.169-2.644 1.754-4.423 1.754h-3.080c-1.074 0-1.953 0.342-2.637 1.026s-1.026 1.561-1.026 2.632c0 1.077 0.342 1.958 1.026 2.642s1.563 1.026 2.637 1.026h8.31c0.246-0.965 0.785-1.794 1.617-2.486s1.83-1.037 2.993-1.037c1.337 0 2.468 0.463 3.393 1.388s1.387 2.056 1.387 3.393c0 1.337-0.462 2.468-1.387 3.393s-2.056 1.387-3.393 1.387zM6.16 8.32c0.613 0 1.127-0.207 1.54-0.62s0.62-0.927 0.62-1.54c0-0.613-0.207-1.127-0.62-1.54s-0.927-0.62-1.54-0.62c-0.613 0-1.127 0.207-1.54 0.62s-0.62 0.927-0.62 1.54c0 0.613 0.207 1.127 0.62 1.54s0.927 0.62 1.54 0.62z"></path>
</symbol>
<symbol id="profile" viewBox="0 0 32 32">
<path d="M6.653 24.087c1.521-1.055 3.031-1.865 4.528-2.428s3.105-0.846 4.823-0.846c1.718 0 3.333 0.284 4.845 0.852s3.023 1.376 4.534 2.422c1.055-1.315 1.803-2.626 2.242-3.933s0.66-2.692 0.66-4.153c0-3.487-1.175-6.407-3.527-8.758s-5.27-3.527-8.757-3.527c-3.487 0-6.407 1.176-8.759 3.527s-3.528 5.271-3.528 8.758c0 1.461 0.225 2.845 0.674 4.151s1.204 2.618 2.265 3.936zM15.993 17.152c-1.42 0-2.613-0.485-3.578-1.456s-1.449-2.164-1.449-3.58 0.485-2.609 1.455-3.578c0.97-0.969 2.166-1.454 3.585-1.454s2.613 0.487 3.578 1.461c0.966 0.974 1.449 2.168 1.449 3.584s-0.485 2.608-1.455 3.574c-0.97 0.966-2.166 1.449-3.585 1.449zM16.012 30.763c-2.025 0-3.935-0.387-5.73-1.161s-3.364-1.833-4.708-3.176c-1.344-1.343-2.402-2.91-3.176-4.7s-1.161-3.702-1.161-5.737c0-2.028 0.388-3.936 1.163-5.722s1.834-3.351 3.175-4.692c1.341-1.342 2.907-2.401 4.697-3.18s3.703-1.167 5.738-1.167c2.028 0 3.936 0.389 5.722 1.167s3.351 1.838 4.692 3.18c1.342 1.341 2.401 2.906 3.18 4.694s1.167 3.694 1.167 5.719c0 2.025-0.389 3.935-1.167 5.731s-1.838 3.364-3.18 4.706c-1.341 1.342-2.906 2.4-4.694 3.175s-3.694 1.163-5.719 1.163zM16 28.286c1.316 0 2.596-0.188 3.84-0.564s2.484-1.041 3.72-1.993c-1.242-0.867-2.488-1.523-3.738-1.969s-2.524-0.669-3.821-0.669-2.57 0.223-3.817 0.669c-1.247 0.446-2.492 1.103-3.734 1.969 1.236 0.952 2.475 1.617 3.716 1.993s2.519 0.564 3.835 0.564zM16 14.866c0.806 0 1.466-0.255 1.978-0.764s0.769-1.169 0.769-1.979-0.256-1.471-0.769-1.983c-0.513-0.513-1.172-0.769-1.978-0.769s-1.466 0.256-1.979 0.769c-0.513 0.512-0.769 1.174-0.769 1.983s0.256 1.469 0.769 1.979c0.513 0.51 1.172 0.764 1.979 0.764z"></path>
</symbol>
<symbol id="dairy" viewBox="0 0 26 32">
<path d="M3.654 21.749c0.345-0.221 0.719-0.388 1.123-0.503s0.837-0.172 1.3-0.172h1.213v-17.428h-1.213c-0.681 0-1.255 0.235-1.723 0.705s-0.701 1.046-0.701 1.727v15.671zM9.707 21.074h12.83v-17.428h-12.83v17.428zM6.078 30.763c-1.34 0-2.482-0.472-3.425-1.415s-1.415-2.085-1.415-3.425v-19.845c0-1.342 0.472-2.486 1.415-3.431s2.085-1.418 3.425-1.418h16.39c0.69 0 1.276 0.242 1.76 0.726s0.726 1.071 0.726 1.76v18.814c0 0.237-0.061 0.452-0.182 0.645s-0.276 0.328-0.465 0.407c-0.443 0.183-0.791 0.482-1.043 0.897s-0.378 0.893-0.378 1.434 0.126 1.018 0.376 1.43c0.251 0.412 0.598 0.707 1.040 0.886 0.209 0.091 0.371 0.25 0.483 0.477s0.169 0.502 0.169 0.825v0.040c0 0.33-0.117 0.611-0.352 0.844s-0.521 0.349-0.861 0.349h-17.663zM6.061 28.346h15.055c-0.204-0.345-0.364-0.725-0.477-1.142s-0.17-0.844-0.17-1.28c0-0.462 0.057-0.896 0.172-1.3s0.285-0.782 0.512-1.134h-15.088c-0.666 0-1.234 0.235-1.704 0.705s-0.705 1.046-0.705 1.727c0 0.675 0.235 1.248 0.705 1.719s1.037 0.705 1.701 0.705z"></path>
</symbol>
<symbol id="my-day" viewBox="0 0 29 32">
<path d="M9.973 22.234c-0.99 0-1.824-0.342-2.503-1.025s-1.018-1.52-1.018-2.509c0-0.99 0.342-1.824 1.025-2.503s1.52-1.018 2.509-1.018c0.989 0 1.823 0.342 2.502 1.025s1.018 1.52 1.018 2.509c0 0.989-0.342 1.823-1.025 2.502s-1.52 1.018-2.509 1.018zM3.715 30.763c-0.669 0-1.249-0.246-1.74-0.737s-0.737-1.071-0.737-1.74v-22.389c0-0.672 0.246-1.254 0.737-1.747s1.071-0.74 1.74-0.74h2.285v-0.94c0-0.348 0.121-0.642 0.362-0.882s0.535-0.36 0.881-0.36c0.356 0 0.656 0.12 0.901 0.36s0.367 0.534 0.367 0.882v0.94h12.068v-0.94c0-0.348 0.121-0.642 0.363-0.882s0.535-0.36 0.881-0.36c0.356 0 0.657 0.12 0.901 0.36s0.367 0.534 0.367 0.882v0.94h2.285c0.672 0 1.254 0.247 1.747 0.74s0.74 1.075 0.74 1.747v22.389c0 0.669-0.247 1.249-0.74 1.74s-1.075 0.737-1.747 0.737h-21.662zM3.715 28.286h21.662v-15.558h-21.662v15.558zM3.715 10.546h21.662v-4.649h-21.662v4.649z"></path>
</symbol>
<symbol id="exit" viewBox="0 0 30 32">
<path d="M4.086 30.64c-0.736 0-1.374-0.27-1.914-0.811s-0.811-1.178-0.811-1.914v-23.828c0-0.739 0.27-1.379 0.811-1.921s1.178-0.814 1.914-0.814h10.569c0.385 0 0.708 0.133 0.97 0.4s0.393 0.594 0.393 0.98c0 0.386-0.131 0.709-0.393 0.967s-0.585 0.388-0.97 0.388h-10.569v23.828h10.569c0.385 0 0.708 0.132 0.97 0.395s0.393 0.588 0.393 0.975c0 0.387-0.131 0.709-0.393 0.968s-0.585 0.388-0.97 0.388h-10.569zM25.427 17.363h-12.922c-0.385 0-0.708-0.132-0.97-0.395s-0.393-0.588-0.393-0.975c0-0.386 0.131-0.709 0.393-0.968s0.585-0.388 0.97-0.388h12.842l-3.077-3.077c-0.272-0.273-0.401-0.593-0.388-0.96s0.156-0.685 0.428-0.954c0.272-0.275 0.596-0.411 0.972-0.408s0.702 0.141 0.978 0.412l5.435 5.435c0.265 0.274 0.398 0.593 0.398 0.956s-0.133 0.681-0.398 0.953l-5.395 5.395c-0.267 0.272-0.584 0.403-0.951 0.392s-0.692-0.151-0.974-0.423c-0.262-0.272-0.394-0.596-0.398-0.974s0.134-0.703 0.413-0.976l3.037-3.047z"></path>
</symbol>
<symbol id="burger" viewBox="0 0 44 32">
<path d="M0.667 0h42.667v5.333h-42.667v-5.333zM0.667 13.333h42.667v5.333h-42.667v-5.333zM0.667 26.667h42.667v5.333h-42.667v-5.333z"></path>
</symbol>
</defs>
</svg>
